<?xml version="1.0" encoding="UTF-8" standalone="no"?>
<svg xmlns:dc="http://purl.org/dc/elements/1.1/" xmlns:cc="http://creativecommons.org/ns#" xmlns:rdf="http://www.w3.org/1999/02/22-rdf-syntax-ns#"
    xmlns="http://www.w3.org/2000/svg" xmlns:sodipodi="http://sodipodi.sourceforge.net/DTD/sodipodi-0.dtd"
    xmlns:inkscape="http://www.inkscape.org/namespaces/inkscape" viewBox="0 0 64 64" width="512"
    height="512" version="1.1" id="svg15" sodipodi:docname="disease.svg" inkscape:version="1.0.1 (3bc2e813f5, 2020-09-07)">
  <metadata
     id="metadata21">
    <rdf:RDF>
      <cc:Work
         rdf:about="">
        <dc:format>image/svg+xml</dc:format>
        <dc:type
           rdf:resource="http://purl.org/dc/dcmitype/StillImage" />
      </cc:Work>
    </rdf:RDF>
  </metadata>
  <defs
     id="defs19" />
  <sodipodi:namedview
     pagecolor="#ffffff"
     bordercolor="#666666"
     borderopacity="1"
     objecttolerance="10"
     gridtolerance="10"
     guidetolerance="10"
     inkscape:pageopacity="0"
     inkscape:pageshadow="2"
     inkscape:window-width="1920"
     inkscape:window-height="1001"
     id="namedview17"
     showgrid="false"
     inkscape:zoom="1.6210938"
     inkscape:cx="256"
     inkscape:cy="256"
     inkscape:window-x="-9"
     inkscape:window-y="-9"
     inkscape:window-maximized="1"
     inkscape:current-layer="svg15" />
  <g
     id="Outline"
     style="fill:#293453;fill-opacity:1">
    <path
       d="M57,27a4.977,4.977,0,0,0-3.974,2h-5.34a15.892,15.892,0,0,0-2.476-5.967l3.778-3.779a5,5,0,1,0-4.242-4.242l-3.775,3.775A15.876,15.876,0,0,0,35,16.308V10.974a5,5,0,1,0-6,0v5.315a15.869,15.869,0,0,0-5.982,2.486l-3.764-3.763a5.144,5.144,0,1,0-4.242,4.242l3.777,3.777A15.921,15.921,0,0,0,16.315,29H10.974a5,5,0,1,0,0,6h5.31a15.876,15.876,0,0,0,2.494,5.979l-3.767,3.767a5,5,0,1,0,4.243,4.242l3.772-3.771A15.923,15.923,0,0,0,29,47.7v5.324a5,5,0,1,0,6,0V47.689a15.911,15.911,0,0,0,5.969-2.478l3.777,3.777a5,5,0,1,0,4.242-4.242l-3.766-3.767A15.893,15.893,0,0,0,47.7,35h5.323A4.991,4.991,0,1,0,57,27ZM47.556,12.2a3,3,0,1,1,0,4.243A2.98,2.98,0,0,1,47.556,12.2Zm-2.05,4.878a5,5,0,0,0,1.415,1.415l-2.942,2.941a16.128,16.128,0,0,0-1.418-1.41ZM32,4a3,3,0,1,1-3,3A3,3,0,0,1,32,4ZM11.322,14.322a3,3,0,1,1,.879,2.122A2.98,2.98,0,0,1,11.322,14.322Zm5.757,4.172a5,5,0,0,0,1.415-1.415l2.942,2.943a15.991,15.991,0,0,0-1.42,1.408ZM7,35a3,3,0,1,1,3-3A3,3,0,0,1,7,35Zm9.444,16.8a3.072,3.072,0,0,1-4.243,0,3,3,0,1,1,4.243,0Zm2.05-4.878a4.98,4.98,0,0,0-1.415-1.414l2.939-2.939a16.138,16.138,0,0,0,1.413,1.416ZM32,60a3,3,0,1,1,3-3A3,3,0,0,1,32,60ZM52.678,49.678A2.98,2.98,0,0,1,51.8,51.8a3.072,3.072,0,0,1-4.243,0,3,3,0,1,1,5.122-2.121Zm-5.757-4.171a4.98,4.98,0,0,0-1.415,1.414l-2.937-2.937a16.138,16.138,0,0,0,1.407-1.422ZM43,33a1,1,0,0,0,0,2h2.661A14.019,14.019,0,0,1,35,45.656V43a1,1,0,0,0-2,0v9.1a5,5,0,0,0-2,0V43a1,1,0,0,0-2,0v2.659A14.023,14.023,0,0,1,18.339,35H21a1,1,0,0,0,0-2H11.9a5,5,0,0,0,0-2H21a1,1,0,0,0,0-2H18.348A14.016,14.016,0,0,1,29,18.341V21a1,1,0,0,0,2,0V11.9a5,5,0,0,0,2,0V21a1,1,0,0,0,2,0V18.349A14.017,14.017,0,0,1,45.656,29H43a1,1,0,0,0,0,2h9.1a5,5,0,0,0,0,2Zm14,2a3,3,0,1,1,3-3A3,3,0,0,1,57,35Z"
       id="path2"
       style="fill:#293453;fill-opacity:1" />
    <path
       d="M26,23a3,3,0,1,0,3,3A3,3,0,0,0,26,23Zm0,4a1,1,0,1,1,1-1A1,1,0,0,1,26,27Z"
       id="path4"
       style="fill:#293453;fill-opacity:1" />
    <path
       d="M36,32a4,4,0,1,0,4,4A4,4,0,0,0,36,32Zm0,6a2,2,0,1,1,2-2A2,2,0,0,1,36,38Z"
       id="path6"
       style="fill:#293453;fill-opacity:1" />
    <path
       d="M37,27H36a1,1,0,0,1,0-2h1a1,1,0,0,1,0,2Z"
       id="path8"
       style="fill:#293453;fill-opacity:1" />
    <path
       d="M28,34H27a1,1,0,0,1,0-2h1a1,1,0,0,1,0,2Z"
       id="path10"
       style="fill:#293453;fill-opacity:1" />
    <path
       d="M26,40H25a1,1,0,0,1,0-2h1a1,1,0,0,1,0,2Z"
       id="path12"
       style="fill:#293453;fill-opacity:1" />
  </g>
</svg>
