<?xml version="1.0" encoding="UTF-8" standalone="no"?>
<svg xmlns:dc="http://purl.org/dc/elements/1.1/" xmlns:cc="http://creativecommons.org/ns#" xmlns:rdf="http://www.w3.org/1999/02/22-rdf-syntax-ns#"
    xmlns="http://www.w3.org/2000/svg" xmlns:sodipodi="http://sodipodi.sourceforge.net/DTD/sodipodi-0.dtd"
    xmlns:inkscape="http://www.inkscape.org/namespaces/inkscape" version="1.1" id="Capa_1" x="0px" y="0px"
    viewBox="0 0 512.088 512.088" style="enable-background:new 0 0 512.088 512.088;" xml:space="preserve"
    sodipodi:docname="medicine.svg" inkscape:version="1.0.1 (3bc2e813f5, 2020-09-07)"><metadata
   id="metadata43"><rdf:RDF><cc:Work
       rdf:about=""><dc:format>image/svg+xml</dc:format><dc:type
         rdf:resource="http://purl.org/dc/dcmitype/StillImage" /><dc:title /></cc:Work></rdf:RDF></metadata><defs
   id="defs41" /><sodipodi:namedview
   pagecolor="#ffffff"
   bordercolor="#666666"
   borderopacity="1"
   objecttolerance="10"
   gridtolerance="10"
   guidetolerance="10"
   inkscape:pageopacity="0"
   inkscape:pageshadow="2"
   inkscape:window-width="1920"
   inkscape:window-height="1001"
   id="namedview39"
   showgrid="false"
   inkscape:zoom="1.1460894"
   inkscape:cx="334.82916"
   inkscape:cy="220.56082"
   inkscape:window-x="-9"
   inkscape:window-y="-9"
   inkscape:window-maximized="1"
   inkscape:current-layer="Capa_1"
   showborder="true"
   inkscape:document-rotation="0" />


















<g
   id="g916"
   transform="matrix(0.56869612,0,0,0.56869612,305.46713,185.73711)"><path
     d="M 327.76096,168.12663 C 286.88363,119.0333 208.7743,111.91996 159.7023,70.318628 c -53.14266,-45.052 -66.96266,-108.70666 -112.61866,-160.744 -19.04,-21.702668 -40.7373305,-52.459998 -66.63466,-66.661328 -23.33067,-12.79067 -48.5,-23.952 -76.49867,-26.116 -35.08666,-2.71467 -73.19999,9.64667 -102.26666,33.16666 -28.6,23.14267 -49.192,56.627998 -82.352,72.220008 -41.64133,19.57866 -86.38,5.55866 -127.05199,2.71066 -47.55254,-3.33066 -96.88334,23.03067 -113.05254,67.4506697 -7.24946,19.9160003 -7.27506,41.6800003 -3.9428,62.5293303 3.3928,21.23333 10.57867,42.748 24.63133,59.804002 14.84214,18.01467 34.43587,31.74533 47.46347,51.35066 15.4512,23.24934 14.2072,54.632 9.1272,83.97867 -5.08027,29.34933 -13.5636,59.116 -11.0256,87.816 3.7308,42.18266 33.16827,78.304 74.24827,91.10399 52.736,16.43067 114.40133,-4.25733 170.45866,-25.60133 50.188,-19.11066 108.16533,-41.488 160.55466,-37.90533 55.2573295,3.77867 100.81067,38.792 153.32133,50.42907 67.20666,14.89213 148.77999,-6.39574 200.34133,-59.77174 51.55999,-53.37733 64.92666,-138.02666 23.35599,-187.95199"
     style="fill:#546bab;fill-opacity:1;fill-rule:nonzero;stroke:none;stroke-width:0.133333"
     id="path16" /><g
     id="g886"
     transform="matrix(0.74425764,0,0,0.74425764,-348.1519,-64.918019)"><path
       style="fill:#293453;fill-opacity:1"
       d="M 480.044,53.421 C 480.092,23.966 456.253,0.049 426.798,0 399.061,-0.046 375.92,21.176 373.569,48.813 L 248.492,173.869 c -4.171,4.16 -4.179,10.914 -0.019,15.085 2.006,2.011 4.731,3.139 7.571,3.134 h 106.667 c 3.357,0 6.519,-1.581 8.533,-4.267 l 61.013,-81.344 c 27.164,-2.84 47.793,-25.744 47.787,-53.056 z"
       id="path2" /><path
       style="fill:#293453;fill-opacity:1"
       d="m 501.377,224.088 c 0,-5.891 -4.776,-10.667 -10.667,-10.667 H 21.377 c -5.891,0 -10.667,4.776 -10.667,10.667 0.135,96.876 57.217,184.618 145.728,224 h 199.189 c 88.52,-39.376 145.611,-127.119 145.75,-224 z"
       id="path4" /><path
       style="fill:#293453;fill-opacity:1"
       d="m 384.044,443.36273 h -256 c -17.673,0 -32,14.327 -32,32 0,17.673 14.327,32 32,32 h 256 c 17.673,0 32,-14.327 32,-32 0,-17.673 -14.327,-32 -32,-32 z"
       id="path6" /><g
       id="g8">
</g><g
       id="g10">
</g><g
       id="g12">
</g><g
       id="g14">
</g><g
       id="g16">
</g><g
       id="g18">
</g><g
       id="g20">
</g><g
       id="g22">
</g><g
       id="g24">
</g><g
       id="g26">
</g><g
       id="g28">
</g><g
       id="g30">
</g><g
       id="g32">
</g><g
       id="g34">
</g><g
       id="g36">
</g></g></g></svg>
